<svg class="absolute right-0 bottom-0 max-w-8/10 /10 max-h-8/10 " version="1.0" xmlns="http://www.w3.org/2000/svg" viewBox="0 0 1353.000000 1552.000000" preserveAspectRatio="xMidYMid meet"><g transform="translate(0.000000,1552.000000) scale(0.100000,-0.100000)" fill="red" stroke="none"><path d="M5244 15479 c-45 -3 -87 -10 -94 -14 -7 -4 -50 -9 -96 -10 -116 -4
-294 -26 -288 -36 3 -5 -15 -9 -40 -9 -26 0 -46 -5 -46 -11 0 -7 -11 -8 -29
-4 -29 6 -165 -14 -271 -41 -30 -8 -76 -14 -102 -14 -27 0 -81 -9 -121 -19
-106 -29 -394 -132 -527 -189 -63 -27 -176 -67 -250 -90 -207 -62 -467 -173
-540 -231 -19 -15 -51 -36 -70 -47 -54 -29 -118 -81 -200 -162 -41 -40 -88
-86 -103 -100 -16 -15 -62 -67 -103 -117 -77 -93 -84 -101 -144 -159 -19 -18
-41 -51 -49 -72 -8 -22 -23 -49 -35 -61 -51 -55 -55 -63 -62 -138 -4 -41 -10
-75 -14 -75 -3 0 -24 -15 -45 -34 -21 -19 -54 -37 -74 -41 -182 -33 -562 -256
-662 -389 -30 -40 -59 -60 -172 -121 -225 -122 -363 -223 -518 -382 -283 -288
-450 -636 -535 -1108 -25 -141 -30 -415 -10 -567 37 -280 124 -545 249 -753
79 -132 251 -366 329 -448 33 -35 40 -39 53 -26 12 12 9 34 -20 154 -19 77
-35 151 -35 165 0 22 -39 199 -55 256 -5 15 0 28 13 40 30 28 34 60 22 169 -7
55 -12 111 -11 125 4 90 7 116 14 127 4 7 12 59 17 115 10 114 30 180 89 298
98 197 283 411 452 522 263 175 688 317 1118 373 175 23 442 29 796 16 379
-13 457 -21 675 -68 217 -47 401 -56 499 -24 82 25 120 11 121 -46 0 -54 -114
-87 -295 -86 -113 0 -156 5 -330 41 -229 48 -348 61 -623 68 -133 3 -198 1
-207 -6 -10 -8 -19 -8 -35 2 -18 11 -23 11 -34 -4 -17 -22 -36 -23 -36 -2 0
15 -23 16 -237 11 -306 -7 -512 -40 -803 -128 -501 -151 -779 -361 -955 -723
-30 -61 -57 -122 -61 -135 l-6 -24 138 6 c256 12 516 61 763 144 127 43 137
44 210 37 42 -4 89 -11 106 -17 16 -5 134 -13 260 -16 209 -7 234 -9 272 -29
23 -12 53 -22 66 -22 12 0 28 -5 34 -11 9 -9 28 -15 55 -18 4 -1 39 -28 78
-62 39 -33 86 -67 105 -75 21 -8 40 -25 45 -40 13 -32 98 -119 108 -109 4 4
-5 17 -20 29 -16 12 -28 27 -28 33 0 5 -14 27 -30 48 -30 38 -47 81 -37 92 3
3 34 -15 69 -41 35 -25 78 -56 97 -68 18 -13 50 -37 70 -54 20 -18 52 -38 71
-46 19 -8 61 -38 92 -67 76 -70 104 -66 54 7 -20 28 -34 52 -31 52 16 0 115
-73 120 -89 3 -10 15 -27 26 -37 17 -15 23 -16 40 -6 25 16 25 16 137 -86 88
-81 211 -238 272 -349 26 -48 49 -62 63 -38 7 13 11 14 24 4 12 -10 16 -10 24
2 5 8 9 22 9 32 0 29 17 20 62 -35 24 -28 58 -67 76 -86 17 -19 32 -39 32 -44
0 -9 76 -106 92 -118 3 -3 17 -25 30 -50 12 -24 32 -49 43 -55 43 -22 80 -73
131 -181 29 -61 61 -145 73 -185 21 -75 41 -110 41 -74 1 17 4 16 25 -10 37
-45 41 -13 11 108 -14 58 -26 114 -26 126 0 37 18 14 35 -47 22 -74 43 -114
57 -106 6 4 8 23 5 46 -5 34 -3 38 13 33 15 -5 17 0 14 40 -2 25 -10 58 -18
74 -20 37 -32 111 -19 111 15 0 41 -69 48 -130 4 -33 18 -76 36 -107 29 -50
31 -60 35 -185 3 -103 1 -135 -10 -147 -12 -14 -11 -27 6 -91 10 -41 17 -90
14 -107 -5 -34 8 -54 18 -28 3 8 13 67 22 130 12 80 22 115 31 115 9 0 13 -14
13 -42 0 -47 -26 -338 -36 -405 -3 -24 -3 -51 1 -60 6 -17 7 -17 20 1 21 28
35 10 35 -47 0 -71 15 -51 45 61 29 109 62 179 77 164 7 -7 3 -37 -11 -93 -11
-46 -24 -106 -27 -134 -3 -27 -15 -72 -26 -100 -29 -69 -47 -151 -48 -210 0
-27 -7 -85 -15 -128 -8 -42 -14 -106 -14 -141 1 -35 -3 -72 -9 -82 -5 -11 -13
-47 -17 -81 -9 -78 10 -87 22 -10 4 29 13 50 18 47 12 -6 12 -46 1 -113 -8
-45 -7 -49 10 -45 14 2 24 24 41 88 12 47 27 93 32 102 6 10 11 24 11 32 0 7
7 20 16 27 15 12 16 10 10 -28 -5 -24 -3 -43 2 -47 7 -4 5 -23 -3 -54 -34
-117 -64 -220 -74 -252 -6 -19 -11 -55 -11 -79 0 -38 2 -42 15 -31 27 22 29 2
7 -48 -25 -52 -62 -192 -62 -229 0 -16 4 -22 11 -17 9 5 10 -1 5 -22 -15 -67
-18 -104 -9 -104 20 0 34 28 43 85 5 31 14 63 20 70 6 8 17 35 23 61 13 52 39
76 59 56 20 -20 29 -157 13 -203 -8 -22 -21 -76 -30 -120 -8 -44 -19 -88 -24
-98 -6 -10 -13 -41 -17 -71 -4 -30 -15 -61 -25 -71 -12 -12 -19 -34 -19 -56
-1 -57 -18 -123 -41 -151 -12 -16 -18 -34 -15 -48 4 -13 -8 -48 -33 -95 -25
-49 -58 -145 -96 -279 -31 -113 -93 -326 -137 -475 -44 -148 -90 -308 -103
-355 -13 -47 -28 -98 -34 -114 -7 -16 -11 -43 -10 -60 1 -21 -23 -81 -76 -186
-42 -85 -98 -207 -122 -270 -25 -63 -85 -212 -133 -330 -214 -521 -271 -677
-457 -1264 -12 -38 -13 -54 -4 -67 24 -39 -47 -314 -211 -819 -54 -166 -116
-366 -153 -490 -7 -25 -33 -110 -58 -190 -79 -255 -232 -815 -262 -955 -39
-183 -94 -362 -125 -410 -33 -51 -210 -355 -210 -361 0 -2 -13 -26 -30 -54
l-29 -50 5454 0 5455 0 0 3979 0 3979 -32 31 c-17 17 -27 31 -21 31 7 0 18 -7
27 -15 8 -8 17 -15 20 -15 3 0 6 33 6 74 l0 74 -45 37 c-48 39 -115 129 -115
155 0 8 -43 56 -96 105 -52 50 -97 97 -98 105 -5 32 -18 60 -27 60 -6 0 -7 -4
-4 -10 3 -5 0 -10 -7 -10 -21 1 -72 51 -113 110 -49 72 -98 132 -160 200 -64
70 -139 170 -126 170 9 0 121 -121 241 -260 75 -88 115 -130 99 -103 -29 46
-210 263 -304 363 -105 113 -326 329 -337 330 -4 0 -33 23 -65 51 -32 28 -72
58 -89 67 -18 10 -57 47 -89 85 -32 37 -61 67 -66 67 -5 0 -21 19 -36 43 -15
23 -46 67 -69 97 -23 30 -44 65 -47 77 -6 29 24 66 47 57 10 -4 25 1 36 11 14
13 23 14 39 5 40 -21 21 8 -36 55 -103 86 -203 189 -203 209 0 11 7 27 16 37
24 27 10 87 -37 149 -21 28 -39 57 -39 64 0 6 -15 29 -32 51 l-33 40 30 -21
c23 -16 37 -19 59 -13 55 15 173 -18 221 -62 29 -26 96 -52 107 -41 5 5 -9 24
-37 46 -45 37 -58 66 -30 66 21 0 19 14 -6 36 -12 10 -51 57 -87 104 -36 47
-105 131 -154 187 -48 56 -88 108 -88 117 0 24 31 19 70 -9 19 -14 38 -25 42
-25 17 0 7 35 -22 74 -85 117 -178 267 -193 310 -20 60 -20 56 -2 56 24 0 19
65 -9 113 -46 83 -82 138 -163 249 -139 190 -187 248 -233 278 -46 31 -125
117 -220 240 -63 83 -142 160 -163 160 -25 0 -99 73 -117 114 -9 23 -30 56
-45 74 -15 18 -29 44 -30 56 -5 38 -24 67 -99 145 l-71 75 50 -29 c28 -15 63
-39 78 -52 66 -54 51 -4 -17 59 -22 21 -59 51 -81 66 -145 97 -187 150 -166
205 11 29 30 34 64 15 12 -7 40 -18 62 -24 22 -6 48 -14 58 -19 33 -14 18 24
-28 70 -24 25 -51 57 -59 73 -8 15 -30 39 -48 54 -127 103 -228 190 -235 201
-4 7 -18 20 -30 28 -54 37 -157 137 -173 170 -20 39 -87 104 -125 121 -14 6
-27 19 -30 28 -8 25 -67 76 -100 87 -16 5 -35 19 -40 30 -6 12 -16 27 -21 34
-17 22 -22 55 -12 73 7 13 1 27 -31 61 -23 25 -41 49 -41 54 0 13 37 24 52 15
7 -4 4 2 -8 13 -11 12 -35 28 -52 37 -17 9 -40 30 -53 47 -12 17 -38 38 -58
47 -32 14 -33 16 -13 20 12 2 22 7 22 11 0 8 -119 71 -134 71 -15 0 -87 81
-80 91 3 5 16 9 30 9 16 0 23 4 18 11 -9 15 -138 74 -239 108 -72 25 -156 64
-193 89 -11 7 -8 15 13 38 49 53 38 62 -150 124 -93 31 -204 65 -245 75 -91
22 -198 61 -220 79 -8 7 -33 19 -55 26 -22 7 -51 18 -65 25 -44 22 -299 87
-500 126 -25 5 -63 13 -85 18 -160 39 -297 62 -460 80 -255 27 -345 41 -377
57 -15 8 -41 14 -58 14 -18 0 -29 4 -25 10 14 23 -136 15 -152 -8 -10 -15 -25
-16 -105 -12 -106 6 -129 25 -25 21 42 -1 67 2 67 8 0 7 -28 11 -75 11 -87 0
-90 -1 -89 -18 1 -8 -6 -12 -20 -10 -13 2 -20 10 -20 21 2 19 -12 24 -18 5 -5
-15 -113 -24 -122 -9 -5 7 10 11 46 12 47 2 43 3 -27 10 -76 7 -171 6 -369 -6
-65 -4 -101 -1 -130 9 -46 17 -226 24 -352 15z m791 -39 c4 -6 -8 -10 -29 -10
-20 0 -36 5 -36 10 0 6 13 10 29 10 17 0 33 -4 36 -10z m1215 -161 c0 -4 -7
-6 -15 -3 -8 4 -15 10 -15 15 0 4 7 6 15 3 8 -4 15 -10 15 -15z m908 -208 c2
-5 -6 -15 -18 -21 -16 -9 -33 -8 -73 6 -83 26 -81 36 8 30 44 -2 81 -9 83 -15z
m-2304 -730 c17 -5 72 -15 121 -22 159 -21 237 -37 360 -74 50 -15 106 -30
125 -34 19 -5 67 -20 105 -35 39 -15 90 -34 115 -42 25 -9 52 -23 60 -33 8 -9
49 -42 90 -73 99 -73 122 -95 297 -279 88 -92 158 -175 172 -203 30 -61 51
-198 53 -346 2 -93 -2 -128 -20 -185 -37 -120 -55 -308 -48 -490 4 -88 13
-189 20 -225 24 -113 84 -260 137 -332 66 -92 81 -123 81 -173 0 -106 -88
-173 -171 -131 -36 19 -95 85 -121 136 -26 52 -46 279 -55 650 -8 281 7 471
47 600 18 57 20 81 14 200 -8 169 -18 220 -55 273 -16 23 -96 112 -179 198
-150 155 -177 175 -292 222 -14 5 -34 13 -45 18 -11 4 -46 16 -79 26 l-58 17
-32 -35 c-127 -142 -214 -220 -346 -310 -199 -136 -445 -226 -700 -257 -93
-11 -358 -6 -425 9 -146 31 -256 62 -320 88 -11 5 -38 14 -60 21 -52 16 -225
99 -246 117 -15 13 -15 17 7 56 13 23 27 49 31 57 13 29 91 126 150 185 154
157 324 263 528 330 95 32 162 46 335 74 75 12 366 13 404 2z m-3754 -461 c0
-5 -4 -10 -10 -10 -5 0 -10 5 -10 10 0 6 5 10 10 10 6 0 10 -4 10 -10z m8008
-408 c2 -7 -2 -10 -12 -6 -9 3 -16 11 -16 16 0 13 23 5 28 -10z m-7343 -1232
c-3 -5 -10 -10 -16 -10 -5 0 -9 5 -9 10 0 6 7 10 16 10 8 0 12 -4 9 -10z m-45
-20 c0 -5 -2 -10 -4 -10 -3 0 -8 5 -11 10 -3 6 -1 10 4 10 6 0 11 -4 11 -10z
m10260 -3510 c0 -5 -2 -10 -4 -10 -3 0 -8 5 -11 10 -3 6 -1 10 4 10 6 0 11 -4
11 -10z m-8009 -143 c-8 -8 -11 -7 -11 4 0 20 13 34 18 19 3 -7 -1 -17 -7 -23z
m106 -309 c-3 -7 -5 -2 -5 12 0 14 2 19 5 13 2 -7 2 -19 0 -25z m-20 -390 c-3
-7 -5 -2 -5 12 0 14 2 19 5 13 2 -7 2 -19 0 -25z m-26 -105 c-12 -20 -14 -14
-5 12 4 9 9 14 11 11 3 -2 0 -13 -6 -23z m-25 -126 c-3 -18 -15 -38 -25 -44
-19 -12 -20 -11 -5 30 24 71 26 74 31 59 3 -7 2 -27 -1 -45z m-371 -2037 c-3
-5 -11 -10 -16 -10 -6 0 -7 5 -4 10 3 6 11 10 16 10 6 0 7 -4 4 -10z"></path><path d="M10900 12798 c0 -18 27 -44 37 -34 4 4 -3 16 -15 29 -18 17 -22 18
-22 5z"></path><path d="M10700 12641 c11 -22 30 -29 30 -11 0 5 -9 14 -21 20 -19 11 -20 10
-9 -9z"></path><path d="M10920 12471 c0 -11 83 -81 96 -81 5 0 -1 10 -13 23 -12 12 -31 32
-43 45 -21 23 -40 29 -40 13z"></path><path d="M10965 12368 c14 -23 38 -48 47 -48 14 0 -11 39 -33 51 -17 9 -20 8
-14 -3z"></path><path d="M3955 10338 c4 -13 16 -36 26 -53 24 -39 26 -10 2 40 -19 39 -38 48
-28 13z"></path><path d="M12390 10177 c0 -7 30 -42 67 -77 68 -66 67 -62 -14 47 -26 34 -53
50 -53 30z"></path><path d="M4411 9940 c14 -31 19 -36 19 -24 0 6 -7 19 -16 30 -14 18 -14 18 -3
-6z"></path><path d="M12440 9701 c0 -13 71 -73 78 -66 6 6 -57 75 -70 75 -4 0 -8 -4 -8
-9z"></path><path d="M4730 9631 c0 -5 5 -13 10 -16 6 -3 10 -2 10 4 0 5 -4 13 -10 16 -5
3 -10 2 -10 -4z"></path><path d="M4895 8000 c-3 -5 -1 -10 4 -10 6 0 11 5 11 10 0 6 -2 10 -4 10 -3 0
-8 -4 -11 -10z"></path><path d="M4923 7724 c-23 -58 -26 -77 -12 -72 7 2 17 22 21 43 11 50 5 67 -9
29z"></path><path d="M4845 7720 c-3 -5 -1 -10 4 -10 6 0 11 5 11 10 0 6 -2 10 -4 10 -3 0
-8 -4 -11 -10z"></path><path d="M4891 7434 c0 -11 3 -14 6 -6 3 7 2 16 -1 19 -3 4 -6 -2 -5 -13z"></path><path d="M4885 7247 c-7 -26 0 -47 14 -47 16 0 21 45 6 59 -12 12 -15 11 -20
-12z"></path></g></svg>